<?xml version="1.0" standalone="no"?>
<!DOCTYPE svg PUBLIC "-//W3C//DTD SVG 20010904//EN"
 "http://www.w3.org/TR/2001/REC-SVG-20010904/DTD/svg10.dtd">
<svg version="1.0" xmlns="http://www.w3.org/2000/svg"
 width="200.000000pt" height="200.000000pt" viewBox="0 0 200.000000 200.000000"
 preserveAspectRatio="xMidYMid meet">
<metadata>
Created by potrace 1.16, written by Peter Selinger 2001-2019
</metadata>
<g transform="translate(0.000000,200.000000) scale(0.100000,-0.100000)"
fill="#000000" stroke="none">
<path d="M749 1866 c-20 -7 -52 -22 -70 -32 -32 -19 -34 -23 -37 -85 -3 -64
-4 -65 -35 -75 -38 -11 -55 -50 -49 -113 4 -39 6 -41 51 -54 l46 -13 3 -67 3
-68 -53 3 c-51 3 -54 4 -85 53 -48 73 -47 72 -113 80 -72 8 -88 -1 -92 -53
l-3 -37 -67 -5 c-59 -5 -71 -9 -115 -46 -26 -23 -49 -50 -51 -62 -4 -27 23
-119 47 -158 15 -25 28 -33 65 -38 25 -4 48 -11 50 -15 3 -5 -6 -19 -19 -31
-34 -32 -31 -53 12 -90 58 -47 75 -48 133 -5 46 33 53 36 78 26 15 -7 44 -28
65 -47 l38 -35 -26 -30 c-14 -17 -25 -37 -25 -44 0 -28 -31 -45 -84 -45 l-52
0 -27 -50 c-34 -62 -34 -69 1 -97 l27 -23 -46 -43 -47 -42 20 -80 c11 -44 24
-84 29 -90 11 -12 193 -26 227 -18 13 3 28 17 33 32 l10 26 21 -27 c25 -36 43
-35 101 2 53 33 71 67 63 120 -5 33 -3 37 40 68 43 32 46 33 59 15 8 -10 15
-21 15 -25 0 -4 7 -14 16 -22 14 -15 13 -19 -16 -52 -50 -58 -54 -73 -31 -127
11 -26 27 -50 36 -53 8 -4 34 1 57 11 40 16 43 16 55 -1 7 -10 13 -30 13 -45
0 -37 19 -78 39 -83 9 -2 48 -10 88 -17 l71 -12 60 52 c33 29 63 60 66 68 4 9
-3 41 -14 71 -22 58 -18 71 21 72 9 0 30 5 48 11 35 12 39 34 21 101 -8 29
-19 41 -53 57 -24 12 -51 21 -61 21 -14 0 -17 5 -12 22 3 13 6 37 6 54 l0 31
57 -8 c52 -7 72 -19 73 -45 0 -5 13 -23 29 -38 26 -25 34 -27 92 -24 61 3 64
4 73 33 6 17 11 31 11 32 1 2 15 -3 32 -9 30 -11 36 -8 127 51 53 35 96 70 96
78 0 32 -43 159 -58 171 -9 6 -28 12 -43 12 -52 0 -60 9 -54 54 6 41 6 41 -46
73 l-52 32 -43 -25 c-50 -29 -51 -29 -121 11 -58 33 -58 33 -19 115 l21 45 66
0 c71 0 91 10 115 56 29 56 16 91 -39 104 l-29 8 41 41 c45 46 50 74 30 151
-23 90 -24 91 -101 105 -70 14 -71 14 -126 -15 l-54 -29 -27 32 c-14 18 -34
32 -44 32 -10 0 -39 -16 -65 -36 -47 -35 -47 -36 -52 -107 -5 -70 -6 -72 -45
-99 -22 -15 -43 -27 -46 -28 -3 0 -18 27 -34 61 l-29 60 32 30 c18 17 32 32
32 35 0 14 -41 81 -59 98 -15 14 -29 17 -55 12 -32 -6 -35 -4 -62 41 -15 27
-32 51 -38 55 -17 12 -98 8 -137 -6z m127 -20 c11 -8 28 -33 38 -55 21 -45 38
-56 67 -40 27 14 61 -8 79 -51 12 -29 11 -33 -20 -65 l-32 -33 38 -76 c21 -42
42 -76 47 -76 4 0 32 16 62 36 l54 36 3 71 c3 71 3 71 46 104 52 40 59 40 74
8 17 -38 49 -41 111 -10 53 27 55 28 113 13 56 -13 60 -16 72 -53 7 -22 16
-60 19 -85 5 -43 3 -47 -41 -89 -26 -24 -45 -49 -43 -55 2 -6 21 -16 42 -22
46 -13 50 -20 31 -66 -23 -53 -36 -60 -91 -48 -70 16 -83 8 -121 -77 -39 -85
-42 -103 -15 -103 10 0 42 -16 71 -36 l52 -36 52 26 c29 14 57 26 62 26 5 0
24 -13 42 -28 31 -25 32 -30 22 -57 -10 -26 -9 -32 10 -47 11 -9 40 -20 63
-23 l42 -7 23 -75 c13 -41 22 -76 20 -78 -15 -13 -157 -103 -169 -107 -9 -4
-29 2 -44 12 -33 22 -45 18 -45 -15 0 -47 -9 -55 -64 -55 -58 0 -85 20 -103
75 -9 28 -13 30 -79 37 -38 4 -74 6 -80 4 -15 -6 -15 -137 0 -141 83 -23 106
-37 117 -75 16 -54 8 -67 -46 -76 -60 -8 -74 -33 -51 -89 26 -61 21 -77 -39
-128 l-54 -48 -68 12 c-37 7 -73 16 -79 21 -6 5 -17 36 -23 69 -14 71 -27 79
-89 55 -51 -18 -54 -17 -75 36 -15 36 -15 38 16 79 18 23 36 48 42 55 7 10 6
20 -2 32 -7 9 -22 34 -33 54 -11 21 -25 38 -30 38 -5 0 -24 -13 -42 -29 -18
-15 -43 -34 -56 -40 -19 -10 -23 -20 -22 -49 4 -76 2 -81 -47 -112 -26 -17
-50 -30 -54 -30 -5 0 -16 14 -26 30 -9 17 -22 30 -28 30 -6 0 -19 -13 -28 -30
-17 -29 -21 -30 -90 -30 -40 0 -88 3 -108 6 -35 6 -36 7 -54 81 l-19 75 42 35
c48 40 52 60 18 92 l-25 23 21 44 22 43 60 3 61 3 25 48 c14 27 35 59 47 71
l22 22 -70 53 c-39 28 -76 54 -82 57 -7 2 -38 -13 -68 -35 -54 -38 -56 -39
-86 -24 -17 8 -40 24 -50 35 -17 19 -17 21 15 50 19 16 31 35 28 43 -5 14 -65
35 -98 35 -21 0 -52 57 -69 124 -11 45 -11 48 16 76 39 41 85 60 142 60 57 0
73 12 73 56 0 42 8 46 70 38 48 -6 53 -10 90 -64 45 -66 52 -70 126 -70 l54 0
0 73 c0 84 -10 102 -60 114 -30 8 -35 14 -38 42 -6 55 4 76 40 86 32 10 33 11
38 78 5 64 7 68 40 88 29 18 87 34 140 38 9 0 25 -5 36 -13z"/>
</g>
</svg>
